<svg width="24" height="20" viewBox="0 0 24 20" fill="none" xmlns="http://www.w3.org/2000/svg">
<path fill-rule="evenodd" clip-rule="evenodd" d="M8.01883 13.1946H8.01776C7.64161 13.1955 7.33595 13.491 7.33595 13.8542C7.33595 14.2179 7.64268 14.5139 8.01954 14.5139H20.4154C20.793 14.5139 21.099 14.8092 21.099 15.1736C21.099 15.538 20.793 15.8333 20.4154 15.8333H8.01954C6.88876 15.8333 5.96876 14.9455 5.96876 13.8542C5.96876 13.0421 6.47843 12.343 7.20493 12.0382L4.73686 1.31944H1.18359C0.806016 1.31944 0.5 1.02412 0.5 0.659722C0.5 0.295329 0.806016 0 1.18359 0H5.28516C5.6056 0 5.88295 0.214753 5.95256 0.516611L6.44122 2.63889H23.1498C23.3643 2.63889 23.5663 2.73613 23.6956 2.9014C23.8246 3.06668 23.8659 3.28074 23.807 3.47986L21.0726 12.716C20.9888 12.9991 20.7205 13.1944 20.4154 13.1944H8.0215L8.01883 13.1946ZM19.8997 11.875L22.2435 3.95833H6.74492L8.56784 11.875H19.8997Z" fill="white"/>
<path fill-rule="evenodd" clip-rule="evenodd" d="M9.24935 20C8.10062 20 7.16602 19.0654 7.16602 17.9167C7.16602 16.768 8.10062 15.8334 9.24935 15.8334C10.3981 15.8334 11.3327 16.768 11.3327 17.9167C11.3327 19.0654 10.3981 20 9.24935 20ZM9.94379 17.9167C9.94379 17.5339 9.6322 17.2223 9.24935 17.2223C8.8665 17.2223 8.5549 17.5339 8.5549 17.9167C8.5549 18.2996 8.8665 18.6112 9.24935 18.6112C9.6322 18.6112 9.94379 18.2996 9.94379 17.9167Z" fill="white"/>
<path fill-rule="evenodd" clip-rule="evenodd" d="M19.2493 20C18.1006 20 17.166 19.0654 17.166 17.9167C17.166 16.768 18.1006 15.8334 19.2493 15.8334C20.3981 15.8334 21.3327 16.768 21.3327 17.9167C21.3327 19.0654 20.3981 20 19.2493 20ZM19.9438 17.9167C19.9438 17.5339 19.6322 17.2223 19.2493 17.2223C18.8665 17.2223 18.5549 17.5339 18.5549 17.9167C18.5549 18.2996 18.8665 18.6112 19.2493 18.6112C19.6322 18.6112 19.9438 18.2996 19.9438 17.9167Z" fill="white"/>
</svg>
